<svg xmlns="http://www.w3.org/2000/svg" fill="none" viewBox="0 0 25 24"><g clip-path="url(#a)"><path stroke="currentColor" stroke-linecap="round" stroke-linejoin="round" stroke-width="2.5" d="M9.98 19c-5 1.5-5-2.5-7-3m14 6v-3.87a3.37 3.37 0 0 0-.94-2.61c3.14-.35 6.44-1.54 6.44-7a5.44 5.44 0 0 0-1.5-3.75A5.07 5.07 0 0 0 20.89 1s-1.18-.35-3.91 1.48a13.4 13.4 0 0 0-7 0C7.25.65 6.07 1 6.07 1a5.07 5.07 0 0 0-.09 3.77 5.44 5.44 0 0 0-1.5 3.78c0 5.42 3.3 6.61 6.44 7a3.37 3.37 0 0 0-.94 2.58V22"/></g><defs><clipPath id="a"><path fill="#fff" d="M.98 0h24v24h-24z"/></clipPath></defs></svg>